PathFileType	4	(X/Y/Z)	24_1_38_p0_0-232_filt_butterworth.trc
DataRate	CameraRate	NumFrames	NumMarkers	Units	OrigDataRate	OrigDataStartFrame	OrigNumFrames
60.0	60.0	5	27	m	60.0	29	232
Frame#	Time	RHip			RKnee			RAnkle			RBigToe			RSmallToe			RHeel			LHip			LKnee			LAnkle			LBigToe			LSmallToe			LHeel			Neck			Head			Nose			RShoulder			RElbow			RWrist			RThumb			RIndex			RPinky			LShoulder			LElbow			LWrist			LThumb			LIndex			LPinky			
		X1	Y1	Z1	X2	Y2	Z2	X3	Y3	Z3	X4	Y4	Z4	X5	Y5	Z5	X6	Y6	Z6	X7	Y7	Z7	X8	Y8	Z8	X9	Y9	Z9	X10	Y10	Z10	X11	Y11	Z11	X12	Y12	Z12	X13	Y13	Z13	X14	Y14	Z14	X15	Y15	Z15	X16	Y16	Z16	X17	Y17	Z17	X18	Y18	Z18	X19	Y19	Z19	X20	Y20	Z20	X21	Y21	Z21	X22	Y22	Z22	X23	Y23	Z23	X24	Y24	Z24	X25	Y25	Z25	X26	Y26	Z26	X27	Y27	Z27	
29	0.4833333333333333	0.4123236853001372	0.5571520582708137	0.8590837309903571	0.422198079415377	0.6133952748213831	1.3031136335388598	0.4067131746855339	0.710417308367637	1.6958032948314836	0.40638858314789783	0.5282555423510739	1.703361013726908	0.45870619732074636	0.5501210719806592	1.7000134150863628	0.38059528232996365	0.7925108909590748	1.7607442653144685	0.2103941680170494	0.5431811576666008	0.8716090922757181	0.19988940307764663	0.6124586581251424	1.3065476384126375	0.20279217332880708	0.6672899445691607	1.6833259554322313	0.23875359032310364	0.49504585833253667	1.68746840082537	0.17706911361836952	0.5348676412673987	1.700259035909499	0.20669334174454226	0.7464462711665538	1.7325335263099118	0.3221649029783862	0.45207460379660025	0.35911141550933706	0.3377151731609799	0.34809973776574354	0.11449534935623765	0.32908808255891386	0.29013780141161616	0.2416093744460357	0.46677143140771993	0.4415852932363008	0.43231572213312686	0.5121671151205408	0.503894005402199	0.6847098246382793	0.4218314724709276	0.3791869422657399	0.8672960127738034	0.3220833866639563	0.36540856654709797	0.9298983645063933	0.3176360727260359	0.3743045733036864	0.9554614673656296	0.3365210382356908	0.39146867617005227	0.9631500632353858	0.1812174637493542	0.41229087705883655	0.44381735485102414	0.14742400947358336	0.3990518238872933	0.6711891367129256	0.25021620550480883	0.37777123564179554	0.8497304716117271	0.3245904616964336	0.356766343599134	0.9016967568146262	0.3283487003959798	0.3609382601684449	0.9393847867954165	0.3213527074807878	0.3734125051000692	0.9514592816100176
30	0.5	0.41328510521043027	0.5568332040254352	0.8590430504896664	0.42219389261246165	0.613504221604088	1.3031199242950406	0.40677235515768795	0.7103731134373635	1.695789490233285	0.406392185777973	0.5282017981239124	1.7033682455715702	0.4587020561422294	0.5502904807885509	1.7000716951868926	0.3806459196938409	0.7924681354908738	1.7606937018575082	0.21019278225120147	0.5424388595013124	0.8695340885470026	0.19981314933996547	0.6125743430767441	1.3063731512222851	0.2027990905977055	0.6672903740945532	1.683329137553974	0.23878215834732136	0.4949558318105236	1.6874728119247049	0.17700439763547235	0.5349095883548982	1.700408825685097	0.2081507797609545	0.7476551844738615	1.7329448214140108	0.32211166534035707	0.4518413366504674	0.35911060100737535	0.33773108433662835	0.34782369295649596	0.11445942209765093	0.329021666590696	0.29011490195351436	0.24165640872122673	0.4667570167921935	0.4416008699287828	0.4323295984787279	0.5122016088382251	0.5038907744083886	0.6847895151792445	0.4215047273479041	0.3786405874069208	0.8683027318480288	0.32266800006244806	0.36398769702609374	0.9301091134482886	0.31756504584247125	0.3742864026009593	0.9554332512668259	0.336531147844726	0.3914411826938539	0.9631487019341318	0.18122426865485194	0.41221700125659017	0.4438140677248948	0.1474069860092024	0.39898898596786947	0.6712218012963214	0.2501126936209763	0.3776817741025173	0.849634599170468	0.32438994371322755	0.3558520362568368	0.9007605210989794	0.3279236425615396	0.3598407102654517	0.9392066502143408	0.32132658619168425	0.37330763682796114	0.9515357980742978
31	0.5166666666666667	0.4144529318554931	0.5567798545483567	0.8588934438452561	0.42211866758225297	0.6137424151421813	1.3035920964508079	0.406811336694745	0.7103663833131791	1.6957868616871397	0.4063907896508854	0.5281809667268429	1.7033895217793584	0.45868817577517107	0.5504502534930705	1.7001414026848451	0.3806826399553862	0.7923737112612134	1.7606778109562833	0.20997418148700484	0.5419942633223909	0.8673386021286578	0.19963813611914252	0.6129419147764839	1.3062768121282378	0.20280746958878682	0.6672920585615395	1.6833577425103137	0.2387908634357751	0.4948500096021104	1.6874766043698455	0.17735015918212466	0.534366248485282	1.7005102457689627	0.20924621856790956	0.7485432833612171	1.7332501235434559	0.322015113037201	0.4518680738288113	0.35912194078511384	0.3376670052717494	0.34779594578638345	0.1144623014904207	0.32896464704012485	0.28997365552428456	0.24167368927790142	0.46676630211051157	0.44162950223773034	0.4323476659145544	0.5122599569556205	0.5039540207845016	0.6848396643928143	0.4204826325053788	0.3777509719782841	0.8696284569424908	0.3221208603121935	0.3649505680941028	0.9308783810738626	0.3175917984030532	0.37408628229862123	0.9553813942949773	0.3365764748307636	0.3914125066205865	0.9631137308357343	0.18122031941895464	0.4121699574559048	0.4438139625651343	0.1474579066570983	0.39884978666149723	0.6708565555266086	0.25007653202782765	0.37760670023314025	0.8495007842758859	0.32397479543911895	0.3542566487446918	0.9000518144196017	0.3279121029388617	0.3590349427588212	0.9390494063466712	0.3213067738346354	0.3732344288060355	0.9516006328403206
32	0.5333333333333333	0.41526985557514534	0.5569098467097144	0.8583976717775016	0.42193777435707797	0.614010265878094	1.3047491933205178	0.40680597262333834	0.7104191237790061	1.695789261924455	0.40638824439077065	0.5282046269122919	1.7034172099591298	0.45867922744786077	0.5505925017159499	1.700202222971348	0.38069624145474523	0.7922846341449292	1.7606861063113775	0.20979771889246757	0.541976753937255	0.8656547400114538	0.19956280213101943	0.6131102746241887	1.306040513237427	0.20281674669031852	0.6673074063760365	1.68339498960323	0.23878422705927047	0.4947553597702645	1.6874694578548615	0.17780822780455188	0.5337057738743285	1.7008027963637544	0.20973493323379083	0.7488707550247774	1.733365267446014	0.32189183025666784	0.4521460212724193	0.35914431339114455	0.33753461721932404	0.3488293899537821	0.11449528421870474	0.3289140487971547	0.28977902250174453	0.24167525990772112	0.46678138334393293	0.441665568041985	0.43237768110622155	0.5123329431952383	0.5041661979458605	0.6848006769599931	0.4190382847710319	0.37668994953079193	0.8705471307314232	0.32064490636168763	0.36786096426528236	0.9322133632158095	0.3177230366693805	0.37373073436286497	0.955294880639154	0.3366851767181075	0.39139555982665825	0.9630540427305732	0.18121684875251617	0.4121599511920553	0.4438152523591394	0.14753078622445545	0.3986959706533126	0.670463953693544	0.2503973977535272	0.3776656318328122	0.8494822012364327	0.3234767563506823	0.35186458811696886	0.9000682668075581	0.32831731461294933	0.35890209058723294	0.9390670053684853	0.32130357180958835	0.373182340367226	0.9516351896248734
33	0.55	0.4154925756838218	0.5570861302029293	0.8573407734784971	0.42170405929969307	0.6141426225845376	1.3062476940083796	0.40676505722750655	0.7104863098838756	1.69578974608283	0.40638619624342875	0.5282343130832914	1.703427567403133	0.45867817129151633	0.5507154143336241	1.7002445065967453	0.38069450357664975	0.7922497209468087	1.7606956514832348	0.20969611763972112	0.5421418581800168	0.8647479453741134	0.20005021994790914	0.6119907748184268	1.3058148831004277	0.2028225913551441	0.6673495628087543	1.6834221874544069	0.23877125731929588	0.49472159595123816	1.687455373509037	0.17802889306915806	0.5334027414984551	1.701264913803213	0.20986067769076433	0.7488627663439071	1.7333768184694802	0.3219125566233164	0.4521619813210905	0.35916204753601777	0.3375368211961181	0.3516025660715634	0.11451821036030027	0.3289462869925418	0.2896649002736471	0.24167468939767137	0.46679360491949434	0.441692164815512	0.43241212494155273	0.5124083481695038	0.5045352162756931	0.6847461664443546	0.41788182556830833	0.3758252598741706	0.8704896259908871	0.3188226569187664	0.3715108099415303	0.9337952763788144	0.31773730748625323	0.37367834457468035	0.95528336831104	0.33682706920733435	0.3914072250724776	0.9629925842281112	0.18121615812704073	0.41216804184914513	0.44381333680457125	0.14757459871799672	0.398535140896843	0.6702003198226706	0.2513675159762872	0.37800025165978307	0.8499242167845076	0.3234533312973278	0.35015366755119276	0.9007328836871017	0.32922665855760047	0.35941951057237587	0.9394685810758248	0.32132308042822494	0.37314203283753244	0.951635547740732
